<svg width="31" height="19" viewBox="0 0 31 19" fill="none" xmlns="http://www.w3.org/2000/svg">
<path d="M27.667 2.75H18.917V0.25H27.667V2.75ZM29.8245 15.25C29.272 16.8713 27.2882 19 23.4482 19C19.6057 19 16.4932 16.8387 16.4932 11.9062C16.4932 7.01875 19.3995 4.50625 23.3257 4.50625C27.1782 4.50625 29.5307 6.73375 30.0445 10.0388C30.142 10.6713 30.1807 11.5237 30.1632 12.7137H20.1295C20.292 16.7275 24.4832 16.8538 25.8645 15.25H29.8245ZM20.217 10.25H26.4232C26.292 8.31625 25.0032 7.47625 23.327 7.47625C21.4945 7.47625 20.4807 8.43625 20.217 10.25ZM8.24949 18.985H0.166992V0.27625H8.85824C15.7032 0.3775 15.8332 7.08125 12.2582 8.90875C16.5845 10.4838 16.7295 18.985 8.24949 18.985ZM3.91699 7.75H8.39699C11.532 7.75 12.0295 4 8.00699 4H3.91699V7.75ZM8.15574 11.5H3.91699V15.27H8.09324C11.912 15.27 11.6782 11.5 8.15574 11.5Z" fill="#474747"/>
</svg>
