<svg width="28" height="28" viewBox="0 0 28 28" fill="none" xmlns="http://www.w3.org/2000/svg">
<path d="M26.583 14C26.5851 15.6465 26.2609 17.277 25.6292 18.7974C24.9975 20.3178 24.0707 21.698 22.9024 22.8581C21.7437 24.0148 20.3684 24.9318 18.8551 25.5567C17.3418 26.1816 15.7202 26.5021 14.083 26.5C7.17927 26.5 1.58302 20.9038 1.58302 14C1.57865 10.7949 2.80981 7.71136 5.02052 5.39064C6.18698 4.15976 7.59234 3.17985 9.1506 2.51087C10.7089 1.8419 12.3872 1.49793 14.083 1.50001C15.7202 1.49789 17.3418 1.81844 18.8551 2.44333C20.3684 3.06822 21.7437 3.98521 22.9024 5.14189C24.0707 6.30203 24.9975 7.68218 25.6292 9.2026C26.2609 10.723 26.5851 12.3536 26.583 14V14Z" stroke="#474747" stroke-width="2.3125" stroke-linecap="round" stroke-linejoin="round"/>
<path d="M26.5837 14C24.7599 14 19.7287 13.3125 15.2255 15.2894C10.3337 17.4375 6.7918 20.7694 5.24805 22.8419" stroke="#474747" stroke-width="2.3125" stroke-linecap="round" stroke-linejoin="round"/>
<path d="M9.39551 2.40878C11.3518 4.21441 15.6205 8.81128 17.208 13.375C18.7955 17.9388 19.383 23.55 19.7455 25.1469" stroke="#474747" stroke-width="2.3125" stroke-linecap="round" stroke-linejoin="round"/>
<path d="M1.67969 12.4375C4.04094 12.58 10.2916 12.7081 14.2916 11C18.2916 9.29183 21.7334 6.14995 22.9141 5.15308M2.52094 18.7581C3.62238 21.4243 5.60888 23.6295 8.14594 25.0024" stroke="#474747" stroke-width="2.3125" stroke-linecap="round" stroke-linejoin="round"/>
<path d="M1.58302 14C1.57865 10.7949 2.80981 7.71136 5.02052 5.39063M14.083 1.50001C12.3872 1.49793 10.7089 1.8419 9.1506 2.51087C7.59234 3.17985 6.18698 4.15976 5.02052 5.39063M19.083 2.54001C20.5065 3.16285 21.8017 4.04516 22.9024 5.14188C24.0707 6.30203 24.9975 7.68218 25.6292 9.2026C26.2609 10.723 26.5851 12.3536 26.583 14C26.583 15.5388 26.3049 17.0131 25.7955 18.375M14.083 26.5C15.7202 26.5021 17.3418 26.1816 18.8551 25.5567C20.3684 24.9318 21.7437 24.0148 22.9024 22.8581" stroke="#474747" stroke-width="2.3125" stroke-linecap="round" stroke-linejoin="round"/>
</svg>
