<svg width="25" height="24" viewBox="0 0 25 24" fill="none" xmlns="http://www.w3.org/2000/svg">
<path d="M12.3329 8.09471C10.1825 8.09471 8.42763 9.8496 8.42763 12C8.42763 14.1504 10.1825 15.9053 12.3329 15.9053C14.4833 15.9053 16.2382 14.1504 16.2382 12C16.2382 9.8496 14.4833 8.09471 12.3329 8.09471ZM24.0458 12C24.0458 10.3828 24.0604 8.78026 23.9696 7.166C23.8788 5.291 23.4511 3.62694 22.08 2.25585C20.7059 0.881822 19.0448 0.457018 17.1698 0.366197C15.5526 0.275377 13.9501 0.290025 12.3358 0.290025C10.7186 0.290025 9.11611 0.275377 7.50185 0.366197C5.62685 0.457018 3.96279 0.884752 2.59169 2.25585C1.21767 3.62987 0.792864 5.291 0.702043 7.166C0.611223 8.78319 0.625871 10.3857 0.625871 12C0.625871 13.6142 0.611223 15.2197 0.702043 16.834C0.792864 18.709 1.2206 20.373 2.59169 21.7441C3.96572 23.1182 5.62685 23.543 7.50185 23.6338C9.11904 23.7246 10.7216 23.7099 12.3358 23.7099C13.953 23.7099 15.5556 23.7246 17.1698 23.6338C19.0448 23.543 20.7089 23.1152 22.08 21.7441C23.454 20.3701 23.8788 18.709 23.9696 16.834C24.0634 15.2197 24.0458 13.6172 24.0458 12ZM12.3329 18.0088C9.00771 18.0088 6.32411 15.3252 6.32411 12C6.32411 8.67479 9.00771 5.9912 12.3329 5.9912C15.6581 5.9912 18.3417 8.67479 18.3417 12C18.3417 15.3252 15.6581 18.0088 12.3329 18.0088ZM18.5878 7.14842C17.8114 7.14842 17.1845 6.52147 17.1845 5.7451C17.1845 4.96874 17.8114 4.34178 18.5878 4.34178C19.3642 4.34178 19.9911 4.96874 19.9911 5.7451C19.9913 5.92946 19.9552 6.11204 19.8848 6.2824C19.8143 6.45277 19.711 6.60756 19.5806 6.73792C19.4502 6.86827 19.2955 6.97163 19.1251 7.04207C18.9547 7.11252 18.7721 7.14866 18.5878 7.14842Z" fill="#474747"/>
</svg>
