<svg width="26" height="26" viewBox="0 0 26 26" fill="none" xmlns="http://www.w3.org/2000/svg">
<path fill-rule="evenodd" clip-rule="evenodd" d="M10.0363 9.21125H14.6787V11.5238C15.3475 10.1938 17.0625 8.99875 19.6388 8.99875C24.5775 8.99875 25.75 11.6463 25.75 16.5037V25.5H20.75V17.61C20.75 14.8438 20.0813 13.2838 18.3787 13.2838C16.0175 13.2838 15.0363 14.965 15.0363 17.6087V25.5H10.0363V9.21125ZM1.4625 25.2875H6.4625V8.99875H1.4625V25.2875ZM7.17875 3.6875C7.17894 4.10659 7.09582 4.52154 6.93423 4.90823C6.77265 5.29492 6.53581 5.64564 6.2375 5.94C5.633 6.54078 4.81476 6.87707 3.9625 6.875C3.11174 6.87443 2.29539 6.539 1.69 5.94125C1.39276 5.64589 1.15673 5.29478 0.99543 4.90804C0.834127 4.5213 0.750724 4.10653 0.75 3.6875C0.75 2.84125 1.0875 2.03125 1.69125 1.43375C2.29611 0.835198 3.1128 0.499626 3.96375 0.5C4.81625 0.5 5.63375 0.83625 6.2375 1.43375C6.84 2.03125 7.17875 2.84125 7.17875 3.6875Z" fill="#474747"/>
</svg>
