<svg width="29" height="24" viewBox="0 0 29 24" fill="none" xmlns="http://www.w3.org/2000/svg">
<path d="M28.5534 3.17119C27.5096 3.63369 26.3884 3.94619 25.2096 4.08744C26.4259 3.35968 27.3358 2.21428 27.7696 0.864944C26.627 1.54368 25.3763 2.02144 24.0721 2.27744C23.1951 1.34103 22.0335 0.720351 20.7676 0.511786C19.5016 0.303221 18.2023 0.518433 17.0712 1.12401C15.9401 1.72959 15.0406 2.69165 14.5123 3.86082C13.9841 5.03 13.8566 6.34088 14.1496 7.58994C11.8343 7.47369 9.56918 6.87188 7.50143 5.82358C5.43367 4.77527 3.60945 3.3039 2.14715 1.50494C1.64715 2.36744 1.35965 3.36744 1.35965 4.43244C1.35909 5.39119 1.59519 6.33525 2.047 7.18086C2.4988 8.02647 3.15235 8.74749 3.94965 9.27994C3.02499 9.25052 2.12074 9.00067 1.31215 8.55119V8.62619C1.31206 9.97087 1.77719 11.2742 2.62863 12.3149C3.48006 13.3557 4.66536 14.0699 5.9834 14.3362C5.12563 14.5683 4.22632 14.6025 3.3534 14.4362C3.72527 15.5932 4.44964 16.605 5.42511 17.3299C6.40057 18.0547 7.57829 18.4564 8.7934 18.4787C6.73069 20.098 4.18326 20.9763 1.5609 20.9724C1.09637 20.9726 0.632244 20.9454 0.170898 20.8912C2.83274 22.6027 5.93132 23.511 9.0959 23.5074C19.8084 23.5074 25.6646 14.6349 25.6646 6.93994C25.6646 6.68994 25.6584 6.43744 25.6471 6.18744C26.7863 5.36366 27.7695 4.34356 28.5509 3.17494L28.5534 3.17119Z" fill="#474747"/>
</svg>
